<?xml version="1.0" standalone="no"?>
<!DOCTYPE svg PUBLIC "-//W3C//DTD SVG 20010904//EN"
 "http://www.w3.org/TR/2001/REC-SVG-20010904/DTD/svg10.dtd">
<svg version="1.0" xmlns="http://www.w3.org/2000/svg"
 width="512.000000pt" height="512.000000pt" viewBox="0 0 512.000000 512.000000"
 preserveAspectRatio="xMidYMid meet">

<g transform="translate(0.000000,512.000000) scale(0.100000,-0.100000)"
fill="#000000" stroke="none">
<path d="M465 4031 c-22 -10 -48 -32 -57 -49 -25 -42 -24 -128 2 -169 37 -61
49 -63 358 -63 l279 0 301 -941 301 -942 -49 -54 c-95 -104 -134 -228 -118
-371 16 -141 119 -281 255 -345 66 -31 72 -32 203 -32 131 0 137 1 203 32 91
43 177 129 220 220 30 63 32 75 32 173 0 58 -3 117 -8 133 l-7 27 569 0 570 0
-10 -32 c-6 -18 -10 -71 -11 -118 0 -176 96 -325 260 -403 65 -31 71 -32 202
-32 131 0 137 1 202 32 360 170 345 675 -25 827 -52 21 -57 21 -1121 26
l-1069 5 -19 54 c-10 30 -16 57 -13 59 6 6 2257 181 2336 182 66 0 139 40 157
86 6 16 84 306 172 644 171 654 171 652 128 713 -43 60 35 57 -1450 57 -1278
0 -1365 -1 -1398 -18 -48 -24 -74 -74 -74 -139 1 -60 20 -95 67 -123 31 -19
61 -20 1280 -20 764 0 1247 -4 1247 -9 0 -21 -230 -885 -237 -892 -5 -4 -516
-46 -1138 -93 -621 -48 -1143 -87 -1160 -89 l-30 -2 -247 770 c-136 424 -247
779 -248 791 0 32 -42 87 -80 106 -31 16 -71 18 -385 18 -319 0 -354 -2 -390
-19z m1582 -2423 c31 -31 37 -45 41 -92 7 -90 -40 -147 -134 -161 -50 -8 -121
27 -147 72 -36 63 -19 152 37 193 36 26 50 30 109 27 51 -3 62 -7 94 -39z
m1991 22 c91 -56 96 -195 8 -249 -84 -52 -181 -25 -224 61 -26 51 -24 94 8
145 36 60 143 82 208 43z"/>
</g>
</svg>
